<?xml version="1.0" standalone="no"?>
<!DOCTYPE svg PUBLIC "-//W3C//DTD SVG 20010904//EN"
 "http://www.w3.org/TR/2001/REC-SVG-20010904/DTD/svg10.dtd">
<svg version="1.0" xmlns="http://www.w3.org/2000/svg"
 width="256.000000pt" height="256.000000pt" viewBox="0 0 256.000000 256.000000"
 preserveAspectRatio="xMidYMid meet">
<metadata>
Created by potrace 1.10, written by Peter Selinger 2001-2011
</metadata>
<g transform="translate(0.000000,256.000000) scale(0.050000,-0.050000)"
fill="#000000" stroke="none">
<path d="M2280 5106 c-2120 -227 -3033 -2836 -1522 -4348 1490 -1490 4027
-645 4333 1442 240 1635 -1160 3083 -2811 2906z m1990 -2458 c210 -99 133
-428 -100 -428 -231 0 -313 324 -108 426 85 42 125 42 208 2z m-3092 -97 c128
-66 153 -255 47 -356 -191 -182 -476 31 -355 265 56 109 195 149 308 91z
m2146 -35 c197 -83 404 -368 405 -556 2 -295 -641 -932 -981 -973 -285 -34
-687 238 -1065 719 -171 217 -148 413 47 418 105 3 140 -21 268 -183 249 -316
546 -560 682 -560 133 0 136 24 23 152 -467 524 -9 1249 621 983z"/>
<path d="M2961 2125 c-57 -53 -68 -85 -63 -181 2 -49 172 -244 212 -244 40 0
190 213 190 270 0 169 -217 268 -339 155z"/>
</g>
</svg>
