<svg fill="none" height="24" viewBox="0 0 24 24" width="24" xmlns="http://www.w3.org/2000/svg"><g stroke="#292d32" stroke-linecap="round" stroke-linejoin="round" stroke-width="1.5"><path d="m19.0593 18.6699-2.14-4.27-2.14 4.27"/><path d="m15.1699 17.9099h3.52"/><path d="m19.9196 21.0201c-.84.61-1.87.98-2.99.98-2.8 0-5.08-2.2701-5.08-5.0801 0-2.8 2.27-5.0799 5.08-5.0799 2.8 0 5.08 2.2699 5.08 5.0799"/><path d="m11.95 8.92999c.05 2.07001-.95 3.07001-3.02001 3.02001h-3.92c-2.01.05-3.00999-.95-3.00999-3.02001v-3.91998c0-2.02 1-3.02002 3.02-3.02002h3.92c2.07 0 3.07 1.00002 3.02 3.02002"/><path d="m9.00922 5.84985h-4.06"/><path d="m6.96875 5.16992v.67999"/><path d="m7.98946 5.83984c0 1.75-1.37001 3.16999-3.05001 3.16999"/><path d="m9.01015 9.01001c-.73 0-1.38999-.39001-1.84999-1.01001"/><path d="m2 15c0 3.87 3.13 7 7 7l-1.05-1.75"/><path d="m22 9c0-3.87-3.13-7-7-7l1.05 1.75"/></g></svg>