<svg fill="none" height="24" viewBox="0 0 24 24" width="24" xmlns="http://www.w3.org/2000/svg"><path d="m5.25 17c0 .4142.33579.75.75.75s.75-.3358.75-.75zm15.8713-14.12132.5304-.53033zm-4.9191 16.10592.7315-.1655zm-14.02956 0-.73151.1655zm.02183-1.609.58534.4689zm9.80553-14.6256h4v-1.5h-4zm9.25 5.25v10h1.5v-10zm-14.5 9v-9h-1.5v9zm5.25-15.75c-1.393 0-2.51322-.00159-3.39175.11652-.90011.12102-1.65798.37991-2.2599.98183l1.06066 1.06066c.27676-.27676.66534-.45721 1.39911-.55586.75535-.10156 1.75648-.10315 3.19188-.10315zm-5.25 6.75c0-1.43542.00159-2.43653.10315-3.19188.09865-.73378.2791-1.12235.55586-1.39911l-1.06066-1.06066c-.60192.60192-.86081 1.35979-.98183 2.2599-.11811.87853-.11652 1.99874-.11652 3.39175zm9.25-5.25c1.4354 0 2.4365.00159 3.1919.10315.7338.09865 1.1223.2791 1.3991.55586l1.0607-1.06066c-.602-.60192-1.3598-.86081-2.2599-.98183-.8786-.11811-1.9988-.11652-3.3918-.11652zm6.75 5.25c0-1.39301.0016-2.51322-.1165-3.39175-.121-.90011-.3799-1.65798-.9818-2.2599l-1.0607 1.06066c.2768.27676.4572.66533.5559 1.39911.1015.75535.1031 1.75646.1031 3.19188zm-1.5 10c0 1.0355-.1893 1.867-.5501 2.417-.329.5015-.8386.833-1.7062.833v1.5c1.3461 0 2.3397-.564 2.9604-1.5102.5889-.8976.7959-2.0662.7959-3.2398zm-2.2563 3.25c-.5277 0-.9334-.2233-1.2704-.632-.3544-.4299-.6224-1.0598-.7896-1.7989l-1.463.331c.1964.8684.538 1.7462 1.0953 2.4221.5748.6972 1.3829 1.1778 2.4277 1.1778zm-14.02959 0c-.5277 0-.93341-.2233-1.27033-.632-.35446-.4299-.62242-1.0598-.78963-1.7989l-1.46302.331c.19645.8684.53802 1.7462 1.09528 2.4221.57479.6972 1.38298 1.1778 2.4277 1.1778zm0 1.5h14.02959v-1.5h-14.02959zm-1.00212-5h10.02111v-1.5h-10.02111zm-1.05784 1.0691c-.09932-.439-.14782-.6673-.15365-.8329-.0039-.1107.0126-.1208.02931-.1417l-1.17068-.9378c-.28417.3547-.3716.7379-.3577 1.1323.01196.3394.10299.7278.1897 1.1111zm1.05784-2.5691c-.46276 0-.90299-.0024-1.26073.0571-.39836.0663-.79037.2229-1.09213.5996l1.17068.9378c.00907-.0113.0129-.0138.02139-.0181.01467-.0075.05503-.0244.14635-.0396.20636-.0344.49945-.0368 1.01444-.0368zm12.97171 2.5691c-.1133-.5009-.2091-.9279-.3149-1.2537-.102-.3137-.2552-.6791-.5733-.9328l-.9354 1.1726c-.0436-.0348-.0013-.0329.082.2236.0795.2446.1586.591.2786 1.1213zm-2.9506-1.0691c.4572 0 .7395.001.9443.0231.1971.0212.2086.0527.1827.0321l.9354-1.1726c-.3002-.2395-.646-.3174-.9576-.3509-.3039-.0327-.6817-.0317-1.1048-.0317z" fill="#141b34"/><g stroke="#141b34" stroke-linecap="round" stroke-width="1.5"><path d="m10.5 7h7"/><path d="m10.5 11h3.5"/></g></svg>